# xmcd
#
# Track frame offsets:
# 150
# 36023
# 64814
# 89510
# 115717
# 145771
# 176846
# 215186
# 247014
# 270435
#
# Disc length: 4042 seconds
#
# Revision: 1
# Processed by: cddbd v1.5.2PL0 Copyright (c) Steve Scherf et al.
# Submitted via: CedeCatalogueitor 2.6.0.6 http://personales.ya.com/cdcatalogueitor
#
DISCID=940fc80a
DTITLE=Dave Specter - Live In Chicago
DYEAR=2008
DGENRE=Blues
TTITLE0=Boss Funk/Riverside Ride
TTITLE1=What Love Did to Me
TTITLE2=How I Got to Memphis
TTITLE3=What's Your Angle?
TTITLE4=Texas Top
TTITLE5=Feel So Bad
TTITLE6=Out on the Road
TTITLE7=Is What It Is
TTITLE8=In Too Deep
TTITLE9=Angel
EXTD=
EXTT0=
EXTT1=
EXTT2=
EXTT3=
EXTT4=
EXTT5=
EXTT6=
EXTT7=
EXTT8=
EXTT9=
PLAYORDER=
